<svg id="Layer_1" data-name="Layer 1" xmlns="http://www.w3.org/2000/svg" viewBox="0 0 1471.83 184"><defs><style>.cls-1{fill:#ed7179;}.cls-2{opacity:0.11;}</style></defs><title>PPlogo</title><path class="cls-1" d="M37.74,184a10.76,10.76,0,0,1-1.49-.1,10.92,10.92,0,0,1-9.34-12.3l6.29-46A10.91,10.91,0,0,1,44,116.16h60c14.8-.54,27.27-11.76,29.06-26.17A34.75,34.75,0,0,0,132,76.38a53.84,53.84,0,0,1-43.36,26.19l-.59,0H49A10.92,10.92,0,0,1,38.18,90.17l6.27-45.34a10.92,10.92,0,0,1,10.82-9.42h56.26l1.59,0a32,32,0,0,0-4.08-6.3c-2.78-3.33-7.42-7.3-13.73-7.3H38L21.74,139.17a10.92,10.92,0,0,1-21.64-3L17.64,9.42A10.93,10.93,0,0,1,28.46,0H95.31c11.52,0,22.35,5.38,30.5,15.14a58,58,0,0,1,12.71,31.05,46.13,46.13,0,0,1,3.24,3.31c9.94,11.26,14.94,27.8,13,43.18-3.1,25-24.68,44.52-50.2,45.31H53.54l-5,36.56A10.92,10.92,0,0,1,37.74,184ZM61.53,80.75H87.71c13.74-.86,25.43-10.33,28.47-22.87a17.06,17.06,0,0,0-4.65-.63H64.78Z"/><path class="cls-2" d="M116.12,58.09a28.53,28.53,0,0,1-5.58,11c5.69,3.75,10,10.77,11.59,19.37a52.3,52.3,0,0,0,9.71-11.88C128.89,66.92,123.35,60.27,116.12,58.09Z"/><path d="M235.65,109.08H207.93v28.84H189.45v-98c15.4,0,30.8-.14,46.2-.14C283.53,39.78,283.67,109.08,235.65,109.08ZM207.93,92.14h27.72c23.66,0,23.52-34.72,0-34.72H207.93Z"/><path d="M295.15,40.06v97.86H278.21V40.06Z"/><path d="M360.25,68.9h16.38v69h-16.1l-.84-10.08c-3.92,8.12-14.7,12-22.4,12.18-20.44.14-35.56-12.46-35.56-36.68,0-23.8,15.82-36.26,36-36.12,9.24,0,18.06,4.34,22,11.2Zm-41.44,34.44c0,13.16,9.1,21,20.44,21,26.88,0,26.88-41.86,0-41.86C327.91,82.48,318.81,90.18,318.81,103.34Z"/><path d="M437.25,137.92V101.8c0-10.5-5.74-18.48-16.66-18.48-10.5,0-17.64,8.82-17.64,19.32v35.28H386V68.76h15.26l1.12,9.38c7-6.86,14-10.36,22.68-10.36,16.24,0,29.26,12.18,29.26,33.88v36.26Z"/><path d="M515.23,137.92V101.8c0-10.5-5.74-18.48-16.66-18.48-10.5,0-17.64,8.82-17.64,19.32v35.28H464V68.76h15.26l1.12,9.38c7-6.86,14-10.36,22.68-10.36,16.24,0,29.26,12.18,29.26,33.88v36.26Z"/><path d="M561,49.44c0,13.3-20.16,13.3-20.16,0S561,36.14,561,49.44ZM542.39,68.62v69.3h17.08V68.62Z"/><path d="M621.07,137.92V101.8c0-10.5-5.74-18.48-16.66-18.48-10.5,0-17.64,8.82-17.64,19.32v35.28H569.83V68.76h15.26l1.12,9.38c7-6.86,14-10.36,22.68-10.36,16.24,0,29.26,12.18,29.26,33.88v36.26Z"/><path d="M702.41,61.9,715,71.42l-7.7,9.8c5.32,6,7.28,12.88,7.28,20.44,0,8.54-3.22,20.58-14.56,25.76,11.48,5.74,14.28,14,14.28,22.82,0,19-14.56,30.8-34.58,30.8s-35-12.18-35-30.8h16.94c0,9,8.26,14.84,18.06,14.84s17.5-5.32,17.5-14.84-9-13.86-17.5-13.86c-21.56,0-35-13.16-35-34.72s15.68-35,35-35c5.46,0,11.06.7,15.82,3.92Zm-40.74,39.76c0,12,8.12,19.18,18.06,19.18s17.92-7.28,17.92-19.18S689.53,82.2,679.73,82.2,661.67,89.62,661.67,101.66Z"/><path d="M792,109.08H764.28v28.84H745.8v-98c15.4,0,30.8-.14,46.2-.14C839.88,39.78,840,109.08,792,109.08ZM764.28,92.14H792c23.66,0,23.52-34.72,0-34.72H764.28Z"/><path d="M886.36,68.9h16.38v69h-16.1l-.84-10.08c-3.92,8.12-14.7,12-22.4,12.18-20.44.14-35.56-12.46-35.56-36.68,0-23.8,15.82-36.26,36-36.12,9.24,0,18.06,4.34,22,11.2Zm-41.44,34.44c0,13.16,9.1,21,20.44,21,26.88,0,26.88-41.86,0-41.86C854,82.48,844.92,90.18,844.92,103.34Z"/><path d="M928.36,68.9l1.26,8c5.32-8.54,12.46-9.8,19.46-9.8s14,2.8,17.78,6.58l-7.7,14.84A17.06,17.06,0,0,0,946.84,84c-9,0-17.22,4.76-17.22,17.5v36.4H912.54v-69Z"/><path d="M983.24,109.5c1.12,8.54,8.54,14.7,20.58,14.7,6.3,0,14.56-2.38,18.48-6.44l10.92,10.78c-7.28,7.56-19.18,11.2-29.68,11.2-23.8,0-37.94-14.7-37.94-36.82,0-21,14.28-36.12,36.68-36.12,23.1,0,37.52,14.28,34.86,42.7Zm37.52-14.14c-1.12-9-8.12-13.44-17.92-13.44-9.24,0-16.8,4.48-19.32,13.44Z"/><path d="M1096.5,137.92V101.8c0-10.5-5.74-18.48-16.66-18.48-10.5,0-17.64,8.82-17.64,19.32v35.28h-16.94V68.76h15.26l1.12,9.38c7-6.86,14-10.36,22.68-10.36,16.24,0,29.26,12.18,29.26,33.88v36.26Z"/><path d="M1144.8,49.44V69h19v14.7h-19.18v29.82c0,6.58,3.64,9.8,9,9.8a19.51,19.51,0,0,0,8.26-2.1l4.76,14.56a38.15,38.15,0,0,1-14.14,2.94c-15,.56-24.78-8-24.78-25.2V83.74h-12.88V69h12.88V51.26Z"/><path d="M1189,39.92V78.28c6.16-8,13.72-10.36,21.56-10.36,19.6,0,28.28,13.3,28.28,33.6v36.4H1221.8V101.66c0-12.6-6.58-17.92-15.68-17.92-10.08,0-17.08,8.54-17.08,18.9v35.28H1172v-98Z"/><path d="M1317.28,103.48c0,19.88-13.58,36-36,36s-35.84-16.1-35.84-36,13.72-36,35.7-36S1317.28,83.74,1317.28,103.48Zm-54.74,0c0,10.5,6.3,20.3,18.76,20.3s18.76-9.8,18.76-20.3S1292.78,83,1281.3,83C1269,83,1262.54,93.12,1262.54,103.48Z"/><path d="M1393,103.48c0,19.88-13.58,36-36,36s-35.84-16.1-35.84-36,13.72-36,35.7-36S1393,83.74,1393,103.48Zm-54.74,0c0,10.5,6.3,20.3,18.76,20.3s18.76-9.8,18.76-20.3S1368.52,83,1357,83C1344.72,83,1338.28,93.12,1338.28,103.48Z"/><path d="M1471.83,40.06v97.86h-16l-1.12-9.52c-5.32,8.26-13.86,11.06-22.26,11.06-20.3,0-35.56-13.44-35.56-36.12,0-23.8,15-36.12,35.14-36.12,7.28,0,18.62,3.92,22.68,11.06V40.06ZM1414,103.34c0,12,8.68,20.3,19.6,20.3s20-7.84,20-20.3a19.7,19.7,0,0,0-20-20.16C1422.69,83.18,1414,90.88,1414,103.34Z"/></svg>