<?xml version="1.0" encoding="utf-8"?>
<!-- Generator: Adobe Illustrator 22.0.1, SVG Export Plug-In . SVG Version: 6.00 Build 0)  -->
<svg version="1.1" id="Layer_1" xmlns="http://www.w3.org/2000/svg" xmlns:xlink="http://www.w3.org/1999/xlink" x="0px" y="0px"
	 viewBox="0 0 1471.8 184" style="enable-background:new 0 0 1471.8 184;" xml:space="preserve">
<style type="text/css">
	.st0{fill:#ED7179;}
	.st1{opacity:0.11;}
</style>
<path class="st0" d="M37.7,184c-0.5,0-1,0-1.5-0.1c-6-0.8-10.2-6.3-9.3-12.3l6.3-46c0.7-5.4,5.4-9.4,10.8-9.4h60
	c14.8-0.5,27.3-11.8,29.1-26.2c0.6-4.5,0.1-9.2-1.1-13.6c-8.8,14.9-25,25.2-43.4,26.2c-0.2,0-0.4,0-0.6,0H49c-3.2,0-6.2-1.4-8.2-3.7
	c-2.1-2.4-3-5.5-2.6-8.7l6.3-45.3c0.7-5.4,5.4-9.4,10.8-9.4h56.3c0.5,0,1.1,0,1.6,0c-1.1-2.3-2.5-4.4-4.1-6.3
	c-2.8-3.3-7.4-7.3-13.7-7.3H38L21.7,139.2c-0.8,6-6.3,10.1-12.3,9.3c-6-0.8-10.1-6.3-9.3-12.3L17.6,9.4C18.4,4,23,0,28.5,0h66.8
	c11.5,0,22.3,5.4,30.5,15.1c7.1,8.6,11.6,19.8,12.7,31c1.1,1,2.2,2.1,3.2,3.3c9.9,11.3,14.9,27.8,13,43.2
	c-3.1,25-24.7,44.5-50.2,45.3c-0.1,0-0.2,0-0.3,0H53.5l-5,36.6C47.8,180,43.1,184,37.7,184z M61.5,80.7h26.2
	c13.7-0.9,25.4-10.3,28.5-22.9c-1.5-0.4-3-0.6-4.7-0.6H64.8L61.5,80.7z"/>
<path class="st1" d="M116.1,58.1c-1,4.1-3,7.8-5.6,11c5.7,3.8,10,10.8,11.6,19.4c3.8-3.5,7.1-7.5,9.7-11.9
	C128.9,66.9,123.3,60.3,116.1,58.1z"/>
<g>
	<path d="M235.6,109.1h-27.7v28.8h-18.5v-98c15.4,0,30.8-0.1,46.2-0.1C283.5,39.8,283.7,109.1,235.6,109.1z M207.9,92.1h27.7
		c23.7,0,23.5-34.7,0-34.7h-27.7V92.1z"/>
	<path d="M295.1,40.1v97.9h-16.9V40.1H295.1z"/>
	<path d="M360.2,68.9h16.4v69h-16.1l-0.8-10.1c-3.9,8.1-14.7,12-22.4,12.2c-20.4,0.1-35.6-12.5-35.6-36.7c0-23.8,15.8-36.3,36-36.1
		c9.2,0,18.1,4.3,22,11.2L360.2,68.9z M318.8,103.3c0,13.2,9.1,21,20.4,21c26.9,0,26.9-41.9,0-41.9
		C327.9,82.5,318.8,90.2,318.8,103.3z"/>
	<path d="M437.2,137.9v-36.1c0-10.5-5.7-18.5-16.7-18.5c-10.5,0-17.6,8.8-17.6,19.3v35.3H386V68.8h15.3l1.1,9.4
		c7-6.9,14-10.4,22.7-10.4c16.2,0,29.3,12.2,29.3,33.9v36.3H437.2z"/>
	<path d="M515.2,137.9v-36.1c0-10.5-5.7-18.5-16.7-18.5c-10.5,0-17.6,8.8-17.6,19.3v35.3H464V68.8h15.3l1.1,9.4
		c7-6.9,14-10.4,22.7-10.4c16.2,0,29.3,12.2,29.3,33.9v36.3H515.2z"/>
	<path d="M561,49.4c0,13.3-20.2,13.3-20.2,0S561,36.1,561,49.4z M542.4,68.6v69.3h17.1V68.6H542.4z"/>
	<path d="M621.1,137.9v-36.1c0-10.5-5.7-18.5-16.7-18.5c-10.5,0-17.6,8.8-17.6,19.3v35.3h-16.9V68.8h15.3l1.1,9.4
		c7-6.9,14-10.4,22.7-10.4c16.2,0,29.3,12.2,29.3,33.9v36.3H621.1z"/>
	<path d="M702.4,61.9l12.6,9.5l-7.7,9.8c5.3,6,7.3,12.9,7.3,20.4c0,8.5-3.2,20.6-14.6,25.8c11.5,5.7,14.3,14,14.3,22.8
		c0,19-14.6,30.8-34.6,30.8c-20,0-35-12.2-35-30.8h16.9c0,9,8.3,14.8,18.1,14.8c9.8,0,17.5-5.3,17.5-14.8c0-9.5-9-13.9-17.5-13.9
		c-21.6,0-35-13.2-35-34.7s15.7-35,35-35c5.5,0,11.1,0.7,15.8,3.9L702.4,61.9z M661.7,101.7c0,12,8.1,19.2,18.1,19.2
		c9.8,0,17.9-7.3,17.9-19.2c0-11.9-8.1-19.5-17.9-19.5C669.8,82.2,661.7,89.6,661.7,101.7z"/>
	<path d="M792,109.1h-27.7v28.8h-18.5v-98c15.4,0,30.8-0.1,46.2-0.1C839.9,39.8,840,109.1,792,109.1z M764.3,92.1H792
		c23.7,0,23.5-34.7,0-34.7h-27.7V92.1z"/>
	<path d="M886.4,68.9h16.4v69h-16.1l-0.8-10.1c-3.9,8.1-14.7,12-22.4,12.2c-20.4,0.1-35.6-12.5-35.6-36.7c0-23.8,15.8-36.3,36-36.1
		c9.2,0,18.1,4.3,22,11.2L886.4,68.9z M844.9,103.3c0,13.2,9.1,21,20.4,21c26.9,0,26.9-41.9,0-41.9C854,82.5,844.9,90.2,844.9,103.3
		z"/>
	<path d="M928.4,68.9l1.3,8c5.3-8.5,12.5-9.8,19.5-9.8c7.1,0,14,2.8,17.8,6.6l-7.7,14.8c-3.5-2.9-6.7-4.5-12.3-4.5
		c-9,0-17.2,4.8-17.2,17.5v36.4h-17.1v-69H928.4z"/>
	<path d="M983.2,109.5c1.1,8.5,8.5,14.7,20.6,14.7c6.3,0,14.6-2.4,18.5-6.4l10.9,10.8c-7.3,7.6-19.2,11.2-29.7,11.2
		c-23.8,0-37.9-14.7-37.9-36.8c0-21,14.3-36.1,36.7-36.1c23.1,0,37.5,14.3,34.9,42.7H983.2z M1020.8,95.4c-1.1-9-8.1-13.4-17.9-13.4
		c-9.2,0-16.8,4.5-19.3,13.4H1020.8z"/>
	<path d="M1096.5,137.9v-36.1c0-10.5-5.7-18.5-16.7-18.5c-10.5,0-17.6,8.8-17.6,19.3v35.3h-16.9V68.8h15.3l1.1,9.4
		c7-6.9,14-10.4,22.7-10.4c16.2,0,29.3,12.2,29.3,33.9v36.3H1096.5z"/>
	<path d="M1144.8,49.4V69h19v14.7h-19.2v29.8c0,6.6,3.6,9.8,9,9.8c2.7,0,5.7-0.8,8.3-2.1l4.8,14.6c-4.9,2-9,2.8-14.1,2.9
		c-15,0.6-24.8-8-24.8-25.2V83.7h-12.9V69h12.9V51.3L1144.8,49.4z"/>
	<path d="M1189,39.9v38.4c6.2-8,13.7-10.4,21.6-10.4c19.6,0,28.3,13.3,28.3,33.6v36.4h-17.1v-36.3c0-12.6-6.6-17.9-15.7-17.9
		c-10.1,0-17.1,8.5-17.1,18.9v35.3H1172v-98H1189z"/>
	<path d="M1317.3,103.5c0,19.9-13.6,36-36,36c-22.4,0-35.8-16.1-35.8-36c0-19.7,13.7-36,35.7-36
		C1303.1,67.5,1317.3,83.7,1317.3,103.5z M1262.5,103.5c0,10.5,6.3,20.3,18.8,20.3s18.8-9.8,18.8-20.3c0-10.4-7.3-20.4-18.8-20.4
		C1269,83,1262.5,93.1,1262.5,103.5z"/>
	<path d="M1393,103.5c0,19.9-13.6,36-36,36c-22.4,0-35.8-16.1-35.8-36c0-19.7,13.7-36,35.7-36C1378.9,67.5,1393,83.7,1393,103.5z
		 M1338.3,103.5c0,10.5,6.3,20.3,18.8,20.3s18.8-9.8,18.8-20.3c0-10.4-7.3-20.4-18.8-20.4C1344.7,83,1338.3,93.1,1338.3,103.5z"/>
	<path d="M1471.8,40.1v97.9h-16l-1.1-9.5c-5.3,8.3-13.9,11.1-22.3,11.1c-20.3,0-35.6-13.4-35.6-36.1c0-23.8,15-36.1,35.1-36.1
		c7.3,0,18.6,3.9,22.7,11.1V40.1H1471.8z M1414,103.3c0,12,8.7,20.3,19.6,20.3c10.8,0,20-7.8,20-20.3c0-12-9.2-20.2-20-20.2
		C1422.7,83.2,1414,90.9,1414,103.3z"/>
</g>
</svg>
